<?xml version="1.0" standalone="no"?>
<!DOCTYPE svg PUBLIC "-//W3C//DTD SVG 20010904//EN"
 "http://www.w3.org/TR/2001/REC-SVG-20010904/DTD/svg10.dtd">
<svg version="1.0" xmlns="http://www.w3.org/2000/svg"
 width="664.000000pt" height="664.000000pt" viewBox="0 0 664.000000 664.000000"
 preserveAspectRatio="xMidYMid meet">
<metadata>
Created by potrace 1.14, written by Peter Selinger 2001-2017
</metadata>
<g transform="translate(0.000000,664.000000) scale(0.100000,-0.100000)"
fill="#000000" stroke="none">
<path d="M785 6439 c-190 -15 -327 -39 -393 -71 -53 -25 -105 -88 -126 -153
-61 -190 -72 -730 -21 -1075 53 -367 204 -799 390 -1117 101 -170 236 -365
325 -467 310 -356 592 -574 1031 -800 77 -40 75 -32 50 -153 -43 -218 -47
-427 -11 -640 107 -634 456 -1178 975 -1519 110 -72 316 -180 389 -204 170
-55 351 82 333 253 -3 28 -26 116 -50 193 -78 246 -97 369 -92 599 4 185 6
206 37 340 48 209 136 409 261 594 88 131 291 337 427 435 205 146 523 270
779 301 71 9 338 9 421 0 90 -9 254 -48 385 -93 213 -71 331 -40 405 108 44
87 29 164 -68 354 -196 386 -527 729 -907 943 -380 213 -892 319 -1249 258
-71 -12 -101 -14 -110 -6 -8 7 -51 85 -96 174 -184 360 -331 569 -573 816
-472 480 -1114 803 -1802 905 -160 24 -546 37 -710 25z m530 -524 c116 -13
186 -25 305 -51 341 -73 681 -225 975 -435 102 -73 307 -252 390 -340 382
-406 625 -904 715 -1469 30 -189 34 -649 5 -678 -3 -4 -111 -8 -238 -9 -236
-1 -318 4 -517 33 -19 3 -84 17 -144 30 -483 110 -918 354 -1286 724 -422 422
-664 901 -766 1510 -22 136 -27 666 -6 679 7 4 31 8 54 9 23 1 44 4 47 7 6 7
393 -2 466 -10z m3160 -1906 c372 -52 720 -223 964 -472 l53 -55 -153 -1
c-195 -1 -276 -7 -420 -31 -193 -33 -409 -105 -601 -201 -42 -21 -79 -35 -81
-31 -3 4 -8 61 -11 127 -13 218 -25 326 -65 550 -11 61 -17 113 -13 117 20 18
185 17 327 -3z m-1811 -1504 c125 -32 368 -73 477 -81 46 -4 91 -8 99 -10 8
-1 40 -3 70 -3 93 -2 94 1 -3 -193 -169 -342 -230 -581 -243 -958 -4 -102 -9
-187 -11 -190 -7 -7 -108 108 -192 218 -207 273 -332 638 -333 972 -1 141 14
270 31 270 3 0 51 -11 105 -25z"/>
<path d="M1552 5375 c-64 -18 -151 -74 -193 -124 -16 -20 -43 -63 -60 -96 -27
-55 -30 -70 -30 -162 0 -135 33 -216 123 -299 133 -123 355 -141 503 -41 111
75 177 211 170 352 -10 217 -166 372 -385 382 -46 2 -96 -3 -128 -12z"/>
<path d="M4759 2520 c-347 -71 -634 -341 -720 -678 -22 -86 -28 -322 -10 -422
39 -227 191 -441 448 -632 199 -149 552 -349 763 -433 485 -194 785 -190 972
14 56 62 79 103 103 185 26 89 17 326 -18 456 -103 392 -433 978 -705 1253
-152 155 -335 246 -523 262 -155 13 -226 12 -310 -5z m276 -511 c122 -33 216
-109 330 -268 178 -250 380 -650 436 -860 19 -74 26 -166 12 -158 -5 3 -33 8
-63 11 -279 33 -983 422 -1143 631 -86 113 -102 290 -38 420 55 111 147 189
261 221 57 16 153 17 205 3z"/>
</g>
</svg>
